<svg width="169" height="57" viewBox="0 0 169 57" fill="none" xmlns="http://www.w3.org/2000/svg">
<rect x="0.842102" width="168.158" height="56.0526" rx="5" fill="#FF3D00"/>
<g clip-path="url(#clip0_36_23)">
<path fill-rule="evenodd" clip-rule="evenodd" d="M44.3486 27.222C44.3173 23.7905 47.1978 22.1206 47.3302 22.0427C45.6983 19.6967 43.1699 19.3765 42.2814 19.3506C40.1576 19.1303 38.0977 20.6038 37.0156 20.6038C35.9121 20.6038 34.2469 19.3726 32.4505 19.4085C30.1404 19.4431 27.9787 20.7629 26.7934 22.8114C24.3468 26.9891 26.1718 33.1281 28.5152 36.5051C29.6879 38.1583 31.0576 40.0052 32.8512 39.94C34.6056 39.8688 35.2612 38.8372 37.3783 38.8372C39.4761 38.8372 40.0917 39.94 41.9206 39.8987C43.8041 39.8688 44.9888 38.2375 46.1203 36.569C47.4753 34.6735 48.0197 32.8067 48.041 32.7108C47.9971 32.6955 44.3845 31.3358 44.3486 27.222ZM40.8937 17.1297C41.8375 15.9649 42.483 14.3823 42.304 12.775C40.9383 12.8349 39.2298 13.7067 38.2468 14.8448C37.3763 15.8485 36.5989 17.4924 36.7999 19.0384C38.334 19.1516 39.9094 18.2751 40.8937 17.1297ZM65.5396 33.7937L64.325 30.0932C64.1966 29.7152 63.9556 28.8247 63.6002 27.4237H63.557C63.3416 28.3166 63.1142 29.2065 62.8748 30.0932L61.6815 33.7937H65.5396ZM69.7393 39.7024H67.2874L65.9443 35.5401H61.2761L59.9963 39.7024H57.609L62.2345 25.5315H65.0911L69.7393 39.7024ZM79.2892 34.5511C79.2892 33.5561 79.0623 32.7361 78.6064 32.0912C78.1092 31.4177 77.4403 31.0816 76.6031 31.0816C76.0347 31.0816 75.5182 31.2686 75.0577 31.6386C74.5958 32.0113 74.2936 32.4972 74.1525 33.1002C74.0806 33.3817 74.0454 33.6113 74.0454 33.7923V35.4961C74.0454 36.2396 74.2763 36.8672 74.7382 37.3796C75.2001 37.8915 75.8004 38.147 76.5392 38.147C77.4064 38.147 78.0806 37.8169 78.5638 37.1587C79.047 36.4998 79.2892 35.6306 79.2892 34.5511ZM81.634 34.4679C81.634 36.2056 81.1581 37.5793 80.2057 38.5876C79.3525 39.4854 78.2936 39.934 77.029 39.934C75.6646 39.934 74.6843 39.4502 74.0873 38.4831H74.044V43.8661H71.7419V32.8479C71.7419 31.7558 71.7133 30.6343 71.6567 29.4842H73.6813L73.8098 31.1035H73.853C74.6204 29.8836 75.7858 29.2746 77.3491 29.2746C78.5711 29.2746 79.5914 29.7505 80.4073 30.7035C81.226 31.6573 81.634 32.9118 81.634 34.4679ZM91.2052 34.5511C91.2052 33.5561 90.9776 32.7361 90.5217 32.0912C90.0239 31.4177 89.3583 31.0816 88.5191 31.0816C87.95 31.0816 87.4349 31.2686 86.973 31.6386C86.5111 32.0113 86.2096 32.4972 86.0678 33.1002C85.998 33.3817 85.9614 33.6113 85.9614 33.7923V35.4961C85.9614 36.2396 86.1923 36.8672 86.6522 37.3796C87.1147 37.8901 87.7144 38.147 88.4558 38.147C89.3224 38.147 89.9972 37.8169 90.4798 37.1587C90.9636 36.4998 91.2052 35.6306 91.2052 34.5511ZM93.5506 34.4679C93.5506 36.2056 93.0741 37.5793 92.121 38.5876C91.2691 39.4854 90.2096 39.934 88.9457 39.934C87.5813 39.934 86.6003 39.4502 86.0039 38.4831H85.9614V43.8661H83.6592V32.8479C83.6592 31.7558 83.6306 30.6343 83.574 29.4842H85.5986L85.7271 31.1035H85.7703C86.5371 29.8836 87.7018 29.2746 89.2665 29.2746C90.4871 29.2746 91.5074 29.7505 92.326 30.7035C93.1413 31.6573 93.5506 32.9118 93.5506 34.4679ZM106.874 35.7284C106.874 36.9337 106.449 37.9147 105.597 38.6721C104.661 39.4994 103.358 39.9127 101.684 39.9127C100.138 39.9127 98.8976 39.6186 97.9599 39.0295L98.493 37.1374C99.5039 37.7404 100.613 38.0425 101.821 38.0425C102.687 38.0425 103.362 37.8489 103.847 37.4635C104.33 37.0775 104.571 36.5604 104.571 35.9148C104.571 35.3397 104.372 34.8552 103.974 34.4625C103.577 34.0699 102.916 33.7038 101.991 33.3664C99.4753 32.4413 98.2188 31.0855 98.2188 29.3032C98.2188 28.1385 98.6594 27.1828 99.5412 26.4393C100.42 25.6953 101.593 25.3239 103.059 25.3239C104.366 25.3239 105.453 25.5482 106.32 25.9961L105.744 27.8477C104.934 27.413 104.019 27.1954 102.994 27.1954C102.185 27.1954 101.552 27.3924 101.099 27.7844C100.715 28.1352 100.523 28.5618 100.523 29.0676C100.523 29.628 100.743 30.0912 101.182 30.4553C101.566 30.792 102.262 31.1561 103.272 31.5488C104.509 32.0399 105.417 32.6136 106.001 33.2719C106.583 33.9281 106.873 34.7494 106.873 35.7284H106.874ZM114.484 31.188H111.947V36.149C111.947 37.4109 112.394 38.0412 113.29 38.0412C113.701 38.0412 114.042 38.0066 114.312 37.936L114.376 39.6598C113.922 39.8275 113.325 39.9114 112.586 39.9114C111.677 39.9114 110.967 39.6379 110.454 39.0914C109.943 38.5444 109.686 37.6259 109.686 36.3361V31.186H108.175V29.4822H109.686V27.6107L111.947 26.9385V29.4822H114.484V31.188ZM123.544 34.583C123.544 33.6406 123.339 32.8326 122.926 32.1577C122.443 31.3424 121.753 30.9358 120.859 30.9358C119.934 30.9358 119.231 31.3431 118.749 32.1577C118.335 32.8333 118.131 33.6539 118.131 34.6256C118.131 35.568 118.335 36.376 118.749 37.0489C119.246 37.8648 119.942 38.2715 120.839 38.2715C121.717 38.2715 122.407 37.8562 122.905 37.0276C123.33 36.3407 123.544 35.5241 123.544 34.583ZM125.932 34.5098C125.932 36.0805 125.476 37.3697 124.567 38.378C123.613 39.4162 122.348 39.934 120.771 39.934C119.251 39.934 118.04 39.4362 117.138 38.4419C116.235 37.4475 115.784 36.1923 115.784 34.6788C115.784 33.0948 116.248 31.7983 117.18 30.7894C118.109 29.7804 119.364 29.2753 120.941 29.2753C122.461 29.2753 123.685 29.7724 124.608 30.7681C125.491 31.7345 125.932 32.981 125.932 34.5091V34.5098ZM133.414 31.4809C133.174 31.4381 132.931 31.4169 132.688 31.4177C131.878 31.4177 131.253 31.7192 130.811 32.3228C130.429 32.8552 130.236 33.5288 130.236 34.3407V39.7024H127.936L127.957 32.7022C127.957 31.5241 127.928 30.4526 127.871 29.4849H129.876L129.96 31.4403H130.024C130.267 30.7681 130.65 30.2277 131.175 29.8217C131.687 29.4563 132.242 29.2746 132.839 29.2746C133.052 29.2746 133.243 29.2892 133.414 29.3159V31.4809ZM141.513 33.5208C141.529 32.8486 141.378 32.2669 141.067 31.7757C140.668 31.1441 140.056 30.8293 139.232 30.8293C138.48 30.8293 137.868 31.1368 137.4 31.7544C137.017 32.2456 136.789 32.8339 136.719 33.5201H141.513V33.5208ZM143.708 34.1098C143.708 34.5165 143.682 34.8599 143.625 35.1394H136.719C136.745 36.149 137.08 36.9211 137.72 37.4535C138.303 37.9294 139.055 38.1683 139.979 38.1683C141.002 38.1683 141.935 38.0073 142.773 37.6845L143.134 39.2605C142.154 39.6824 140.996 39.8928 139.661 39.8928C138.055 39.8928 136.793 39.4255 135.876 38.4938C134.96 37.562 134.501 36.3108 134.501 34.7414C134.501 33.2007 134.927 31.9175 135.782 30.8945C136.676 29.8017 137.883 29.2553 139.404 29.2553C140.897 29.2553 142.027 29.801 142.795 30.8939C143.403 31.7617 143.708 32.8353 143.708 34.1098ZM63.5849 16.8435C63.5849 16.0315 63.3673 15.4085 62.9307 14.9739C62.4948 14.5407 61.8578 14.3237 61.0186 14.3237C60.6625 14.3237 60.3597 14.347 60.1074 14.3956V19.6022C60.2472 19.6235 60.5014 19.6328 60.8722 19.6328C61.7374 19.6328 62.4062 19.3952 62.8768 18.9206C63.348 18.4454 63.5849 17.7533 63.5849 16.8441V16.8435ZM64.7783 16.8128C64.7783 18.0667 64.3969 19.0098 63.6362 19.6434C62.9307 20.2284 61.929 20.5213 60.6312 20.5213C60.0783 20.526 59.5256 20.4982 58.976 20.4381V13.5889C59.6208 13.4895 60.2724 13.4412 60.9247 13.4445C62.1613 13.4445 63.0931 13.7094 63.7214 14.2398C64.4255 14.8388 64.7783 15.6967 64.7783 16.8122V16.8128ZM69.9303 17.9443C69.9303 17.4811 69.8291 17.0837 69.6268 16.7529C69.3899 16.3523 69.0518 16.152 68.6125 16.152C68.1579 16.152 67.8118 16.3516 67.5742 16.7523C67.3719 17.0837 67.2714 17.4871 67.2714 17.9642C67.2714 18.4275 67.3726 18.8248 67.5749 19.1556C67.8198 19.5562 68.1606 19.7566 68.6012 19.7566C69.0338 19.7566 69.3725 19.5529 69.6161 19.1449C69.8258 18.8075 69.9303 18.4075 69.9303 17.9443ZM71.1043 17.9077C71.1043 18.6797 70.8807 19.312 70.4334 19.8085C69.9649 20.319 69.3439 20.5732 68.5692 20.5732C67.8218 20.5732 67.2268 20.3296 66.7829 19.8398C66.3403 19.3506 66.1193 18.7343 66.1193 17.9909C66.1193 17.2135 66.347 16.5759 66.8049 16.0807C67.2628 15.5856 67.8777 15.3373 68.6531 15.3373C69.4005 15.3373 70.0008 15.5809 70.4554 16.0694C70.8873 16.5446 71.1043 17.1583 71.1043 17.9077ZM79.5861 15.4392L77.9934 20.4594H76.9571L76.2969 18.2797C76.1327 17.7465 75.9963 17.2051 75.8883 16.6578H75.8676C75.7699 17.2075 75.6332 17.7495 75.4583 18.2797L74.7575 20.4594H73.7099L72.2124 15.4392H73.3752L73.9509 17.8258C74.09 18.3902 74.2044 18.928 74.2963 19.4364H74.3162C74.4008 19.0171 74.5405 18.4827 74.7369 17.8365L75.459 15.4405H76.3808L77.0729 17.7852C77.2407 18.3576 77.3764 18.908 77.4809 19.4378H77.5122C77.5977 18.8811 77.7132 18.3294 77.8583 17.7852L78.4759 15.4405H79.5867V15.4392H79.5861ZM85.4515 20.4594H84.3201V17.5842C84.3201 16.6984 83.9793 16.2551 83.2952 16.2551C82.9591 16.2551 82.6875 16.3762 82.4772 16.6205C82.2703 16.859 82.1585 17.1654 82.1631 17.4811V20.4581H81.0316V16.8741C81.0316 16.4328 81.0177 15.955 80.9904 15.4372H81.9847L82.0379 16.2225H82.0692C82.201 15.9783 82.3973 15.7766 82.6549 15.6162C82.9638 15.4279 83.3194 15.3301 83.6812 15.334C84.1564 15.334 84.5511 15.4851 84.8659 15.7886C85.2565 16.1606 85.4515 16.715 85.4515 17.4524V20.4594ZM87.4415 20.4594H88.5723V13.1364H87.4415V20.4594ZM94.0591 17.9443C94.0591 17.4811 93.9573 17.0837 93.7556 16.7529C93.5193 16.3523 93.1799 16.152 92.742 16.152C92.2861 16.152 91.9406 16.3516 91.7037 16.7523C91.5014 17.0837 91.4009 17.4871 91.4009 17.9642C91.4009 18.4275 91.502 18.8248 91.7044 19.1556C91.9493 19.5562 92.2901 19.7566 92.7307 19.7566C93.1633 19.7566 93.5007 19.5529 93.7449 19.1449C93.9553 18.8075 94.0591 18.4075 94.0591 17.9443ZM95.2338 17.9077C95.2338 18.6797 95.0102 19.312 94.5629 19.8085C94.0944 20.319 93.4727 20.5732 92.6987 20.5732C91.95 20.5732 91.3556 20.3296 90.913 19.8398C90.4698 19.3506 90.2488 18.7343 90.2488 17.9909C90.2488 17.2135 90.4764 16.5759 90.9343 16.0807C91.3922 15.5856 92.0072 15.3373 92.7819 15.3373C93.53 15.3373 94.129 15.5809 94.5849 16.0694C95.0168 16.5446 95.2338 17.1583 95.2338 17.9077ZM99.5352 18.7336V17.9609C98.2867 17.9396 97.663 18.2771 97.663 18.9726C97.663 19.2341 97.7342 19.4305 97.88 19.5609C98.0258 19.692 98.2114 19.7572 98.4324 19.7572C98.6807 19.7572 98.9129 19.6794 99.1246 19.525C99.2524 19.4369 99.3566 19.3188 99.4282 19.1811C99.4998 19.0433 99.5365 18.8902 99.5352 18.735V18.7336ZM100.71 20.4601H99.6936L99.6098 19.8817H99.5778C99.2304 20.3429 98.7352 20.5739 98.0916 20.5739C97.6111 20.5739 97.2224 20.4215 96.9296 20.1193C96.664 19.8444 96.5316 19.5023 96.5316 19.097C96.5316 18.4834 96.7905 18.0162 97.3116 17.6927C97.8321 17.3686 98.5642 17.2102 99.5066 17.2175V17.123C99.5066 16.4614 99.1552 16.1313 98.4497 16.1313C97.9479 16.1313 97.5046 16.2564 97.1233 16.5034L96.893 15.7706C97.3655 15.4818 97.9499 15.3373 98.6387 15.3373C99.9692 15.3373 100.636 16.0295 100.636 17.4138V19.2621C100.636 19.7639 100.661 20.1632 100.709 20.4594L100.71 20.4601ZM105.966 18.3423V17.505C105.966 17.3606 105.956 17.2435 105.935 17.1536C105.874 16.8904 105.731 16.6534 105.526 16.4774C105.316 16.296 105.046 16.1988 104.769 16.2045C104.347 16.2045 104.017 16.3689 103.773 16.7004C103.533 17.0311 103.411 17.4544 103.411 17.9709C103.411 18.4667 103.527 18.8694 103.759 19.1795C104.004 19.5097 104.334 19.6747 104.748 19.6747C105.119 19.6747 105.416 19.5369 105.642 19.2614C105.86 19.0065 105.966 18.7003 105.966 18.3423ZM107.139 20.4587H106.135L106.082 19.6534H106.051C105.73 20.2664 105.184 20.5732 104.416 20.5732C103.803 20.5732 103.292 20.3356 102.888 19.8611C102.482 19.3859 102.281 18.7696 102.281 18.0122C102.281 17.2002 102.5 16.5413 102.94 16.0388C103.366 15.5703 103.889 15.336 104.511 15.336C105.194 15.336 105.673 15.5629 105.945 16.0175H105.966V13.1364H107.099V19.1077C107.099 19.5962 107.113 20.0468 107.139 20.4601V20.4587ZM115.644 17.9443C115.644 17.4811 115.542 17.0837 115.34 16.7529C115.102 16.3523 114.765 16.152 114.324 16.152C113.87 16.152 113.526 16.3516 113.286 16.7523C113.084 17.0837 112.983 17.4871 112.983 17.9642C112.983 18.4275 113.084 18.8248 113.287 19.1556C113.532 19.5562 113.872 19.7566 114.314 19.7566C114.745 19.7566 115.086 19.5529 115.329 19.1449C115.538 18.8075 115.644 18.4075 115.644 17.9443ZM116.816 17.9077C116.816 18.6797 116.593 19.312 116.145 19.8085C115.677 20.319 115.057 20.5732 114.281 20.5732C113.535 20.5732 112.94 20.3296 112.495 19.8398C112.053 19.3506 111.831 18.7343 111.831 17.9909C111.831 17.2135 112.059 16.5759 112.517 16.0807C112.975 15.5856 113.59 15.3373 114.366 15.3373C115.112 15.3373 115.714 15.5809 116.167 16.0694C116.599 16.5446 116.816 17.1583 116.816 17.9077ZM122.901 20.4594H121.769V17.5842C121.769 16.6984 121.428 16.2551 120.743 16.2551C120.407 16.2551 120.136 16.3762 119.926 16.6205C119.719 16.8588 119.607 17.1653 119.612 17.4811V20.4581H118.48V16.8741C118.48 16.4328 118.467 15.955 118.44 15.4372H119.433L119.486 16.2225H119.518C119.651 15.9783 119.846 15.7766 120.103 15.6162C120.413 15.428 120.768 15.3302 121.13 15.334C121.604 15.334 122 15.4851 122.314 15.7886C122.706 16.1606 122.9 16.715 122.9 17.4524V20.4594H122.901ZM130.515 16.2751H129.269V18.7137C129.269 19.3339 129.49 19.6434 129.928 19.6434C130.132 19.6434 130.3 19.6268 130.433 19.5915L130.462 20.4381C130.238 20.5213 129.945 20.5626 129.583 20.5626C129.136 20.5626 128.789 20.4281 128.537 20.1599C128.284 19.8917 128.159 19.4404 128.159 18.8068V16.2751H127.415V15.4392H128.159V14.5194L129.268 14.1893V15.4385H130.514V16.2751H130.515H130.515ZM136.504 20.4594H135.372V17.6055C135.372 16.7057 135.031 16.2551 134.347 16.2551C133.823 16.2551 133.465 16.516 133.268 17.0378C133.231 17.1682 133.213 17.3035 133.215 17.4391V20.4581H132.085V13.1364H133.216V16.1613H133.237C133.594 15.6109 134.104 15.336 134.766 15.336C135.235 15.336 135.623 15.4871 135.931 15.7906C136.313 16.1686 136.506 16.731 136.506 17.4744V20.4594H136.504ZM141.604 17.4232C141.613 17.0924 141.539 16.8069 141.385 16.5659C141.189 16.2565 140.89 16.1007 140.484 16.1007C140.115 16.1007 139.814 16.2518 139.584 16.5553C139.392 16.807 139.276 17.1079 139.249 17.4232H141.605H141.604ZM142.684 17.712C142.684 17.9117 142.669 18.0801 142.642 18.2178H139.249C139.263 18.7137 139.426 19.0917 139.74 19.3539C140.027 19.5882 140.397 19.7053 140.851 19.7053C141.352 19.7053 141.81 19.6268 142.223 19.4677L142.4 20.2431C141.917 20.4494 141.35 20.5532 140.692 20.5532C139.903 20.5532 139.283 20.3243 138.834 19.8664C138.383 19.4085 138.159 18.7935 138.159 18.0228C138.159 17.2654 138.367 16.6351 138.787 16.1327C139.226 15.5962 139.819 15.3273 140.567 15.3273C141.299 15.3273 141.855 15.5962 142.231 16.1327C142.534 16.5586 142.683 17.0857 142.683 17.712" fill="white"/>
</g>
<defs>
<clipPath id="clip0_36_23">
<rect width="119.133" height="31.9464" fill="white" transform="translate(25.1317 12.1447)"/>
</clipPath>
</defs>
</svg>
