<svg width="169" height="57" viewBox="0 0 169 57" fill="none" xmlns="http://www.w3.org/2000/svg">
<rect width="168.158" height="56.0526" rx="5" fill="#FF3D00"/>
<g clip-path="url(#clip0_36_27)">
<path fill-rule="evenodd" clip-rule="evenodd" d="M21.4479 14.5012C21.1237 14.8273 21.0153 15.4782 21.0153 16.0213V39.8186C21.0153 40.3624 21.2316 40.9055 21.4479 41.3401L21.5564 41.4486L34.9658 28.0837V27.7576L21.4485 14.5005L21.4479 14.5012Z" fill="url(#paint0_linear_36_27)"/>
<path fill-rule="evenodd" clip-rule="evenodd" d="M39.3994 32.4297L34.9655 27.9745V27.6484L39.3994 23.1939L39.5072 23.3031L44.8063 26.3453C46.3204 27.2145 46.3204 28.6275 44.8063 29.4967L39.3994 32.4304V32.4297Z" fill="url(#paint1_linear_36_27)"/>
<path fill-rule="evenodd" clip-rule="evenodd" d="M39.5074 32.4297L34.8578 27.866L21.4484 41.3387C22.0973 41.8825 23.0703 41.8825 23.7192 41.4479L39.5074 32.4297Z" fill="url(#paint2_linear_36_27)"/>
<path fill-rule="evenodd" clip-rule="evenodd" d="M39.5072 23.3024L23.6119 14.392C22.9623 13.9574 21.988 13.9574 21.3397 14.5012L34.857 27.8667L39.5072 23.303V23.3024Z" fill="url(#paint3_linear_36_27)"/>
<path fill-rule="evenodd" clip-rule="evenodd" d="M61.5682 17.3257C61.5682 18.0865 61.2434 18.9557 60.8108 19.4988C60.4984 19.8107 60.1274 20.0577 59.7192 20.2256C59.311 20.3935 58.8735 20.479 58.4321 20.4771C57.5669 20.4771 56.5932 20.151 56.0528 19.4988C55.296 18.8465 54.9713 17.978 54.9713 17.1081C54.9713 16.1304 55.296 15.2612 55.945 14.7181C56.5932 14.0659 57.4584 13.6313 58.3236 13.7398C58.7562 13.7398 59.1888 13.8483 59.6214 14.0659C59.9456 14.2835 60.3782 14.392 60.703 14.8266L60.1619 15.1527C59.6741 14.6657 59.0129 14.3921 58.3236 14.392C57.5669 14.392 56.918 14.7181 56.3769 15.2612C55.8915 15.7534 55.6197 16.4169 55.6202 17.1081C55.6202 17.7603 55.945 18.5211 56.3769 18.9557C56.8649 19.4429 57.5263 19.7165 58.2158 19.7164C58.9725 19.7164 59.5136 19.3903 60.0541 18.9557C60.3782 18.5211 60.5945 17.9773 60.703 17.5427H58.3236V16.7827H61.4597C61.5682 16.9996 61.5682 17.2173 61.5682 17.3257ZM66.5418 14.6096H63.6227V16.7827H66.2184V17.5427H63.6227V19.6079H66.5418V20.368H62.7568V13.8483H66.5418V14.6096ZM70.0027 20.368H69.1375V14.6096H67.2992V13.8483H71.7331V14.6096H69.8949V20.3686L70.0027 20.368ZM75.0855 20.368V13.8483H75.9507V20.2595C75.8422 20.368 75.0855 20.368 75.0855 20.368ZM78.762 20.368V14.6096H76.9244V13.8483H81.3583V14.6096H79.52C79.6278 14.6096 79.6278 20.3686 79.6278 20.3686H78.7626L78.762 20.368ZM89.9006 19.4988C88.6028 20.8032 86.5482 20.8032 85.0341 19.4988C84.4062 18.862 84.0564 18.0023 84.0611 17.1081C84.0611 16.2389 84.3852 15.2612 85.0341 14.7181C86.4404 13.3052 88.4949 13.3052 89.9006 14.609C90.5284 15.2457 90.8783 16.1054 90.8736 16.9996C90.8736 17.978 90.5495 18.8472 89.9006 19.4988ZM85.683 18.9557C86.656 19.934 88.2786 19.934 89.1439 18.9557C89.6294 18.4634 89.9013 17.7995 89.9006 17.1081C89.9006 16.4559 89.5758 15.8043 89.1439 15.2612C88.1702 14.2829 86.5482 14.2829 85.683 15.2612C85.1977 15.7534 84.9258 16.4169 84.9263 17.1081C84.9263 17.7603 85.2504 18.4126 85.683 18.9557ZM92.0636 20.368V13.8483H93.1445L96.2805 18.8465V13.8483H97.1458V20.2595H96.2805L92.9282 14.9351V20.1503L92.063 20.368H92.0636Z" fill="white" stroke="white" stroke-width="0.560673"/>
<path fill-rule="evenodd" clip-rule="evenodd" d="M83.9527 29.7129C81.3571 29.7129 79.411 31.7775 79.5195 34.3851C79.6273 36.9934 81.574 38.9494 84.169 38.8403C86.6562 38.8403 88.6029 36.7757 88.6029 34.2766C88.6029 31.7775 86.6562 29.7129 83.9527 29.7129ZM83.9527 37.1018C82.4393 37.211 81.1414 36.0157 81.033 34.4942C80.9251 32.9728 82.1145 31.669 83.6286 31.5605C85.1427 31.4513 86.4405 32.6467 86.5484 34.1681V34.3857C86.6562 35.798 85.4668 37.1018 83.9527 37.1018ZM73.8963 29.7129C71.3006 29.7129 69.3539 31.7775 69.4624 34.3851C69.4624 36.9934 71.5169 38.9494 74.1126 38.8403C76.5997 38.8403 78.5458 36.7757 78.5458 34.2766C78.5458 31.7775 76.4912 29.7129 73.8963 29.7129ZM73.8963 37.1018C72.3821 37.211 71.0843 36.0157 70.9765 34.4942C70.868 32.9728 72.0574 31.669 73.5721 31.5605C75.0856 31.4513 76.3834 32.6467 76.4912 34.1681V34.3857C76.4912 35.798 75.4097 37.1018 73.8956 37.1018H73.8963ZM61.8924 31.1252V33.0819H66.6511C66.5426 34.0596 66.2185 34.9288 65.5689 35.5811C64.5959 36.5588 63.2981 37.1018 62.0009 36.9934C59.189 36.8849 57.0259 34.3857 57.1344 31.5605C57.2422 28.9522 59.4053 26.6707 62.0009 26.6707C63.2987 26.6707 64.5966 27.1053 65.4611 28.083L66.8667 26.7792C65.5689 25.4747 63.7307 24.8231 62.0009 24.8231C58.1075 24.6062 54.8636 27.7569 54.6466 31.669C54.431 35.5811 57.567 38.8403 61.4598 39.0579H62.0009C63.8392 39.1664 65.6774 38.4057 66.9752 37.1018C68.273 35.4719 68.9213 33.408 68.5972 31.3429H61.8924V31.1259V31.1252ZM110.988 32.6467C110.448 30.9082 108.825 29.8214 106.987 29.7129C104.608 29.7129 102.661 31.5605 102.661 34.059V34.2766C102.553 36.7757 104.5 38.8403 106.987 38.9487H107.203C108.717 38.9487 110.231 38.1887 111.096 36.9934L109.474 35.9065C109.041 36.6672 108.176 37.1018 107.203 37.1018C106.73 37.1031 106.266 36.9713 105.865 36.7216C105.463 36.4719 105.14 36.1142 104.932 35.6896L111.096 33.0813L110.988 32.6467ZM104.716 34.1681C104.608 32.7558 105.689 31.5605 107.095 31.5605H107.203C107.96 31.4513 108.609 31.8866 108.933 32.5388L104.716 34.1681ZM99.633 38.6233H101.58V25.1493H99.633V38.6233ZM96.3892 30.7998C95.6318 30.1475 94.7672 29.7129 93.7935 29.7129C91.1979 29.8214 89.3603 31.9951 89.4681 34.6027C89.5759 36.9934 91.4148 38.8403 93.7942 38.9487C94.7672 38.9487 95.6318 38.6233 96.2807 37.8626H96.3892V38.5148C96.6055 39.8186 95.7403 41.0139 94.4424 41.1224H94.0098C92.9283 41.1224 92.0638 40.4702 91.6311 39.4925L89.9007 40.2532C90.5496 41.8832 92.1716 42.97 94.0098 42.97C96.3892 42.97 98.3359 41.557 98.3359 38.1887V30.039H96.3892V30.7998ZM94.0098 37.1025C92.4964 36.9934 91.4142 35.6896 91.4142 34.1681C91.5227 32.7558 92.6042 31.5605 94.0098 31.5605C95.4161 31.669 96.6055 32.7558 96.497 34.2766V34.3857C96.6055 35.9065 95.5239 37.1018 94.0098 37.1018V37.1025ZM120.396 25.1493H115.53V38.6233H117.476V33.5159H120.288C122.559 33.7335 124.505 31.8866 124.722 29.6044C124.938 27.3223 123.1 25.3669 120.828 25.1493H120.396H120.396ZM120.396 31.669H117.584V26.9968H120.396C121.694 26.9968 122.776 28.083 122.776 29.2783C122.776 30.5828 121.802 31.669 120.396 31.669ZM133.048 29.7129C131.535 29.6044 130.128 30.4736 129.48 31.7775L131.318 32.5382C131.643 31.8859 132.399 31.4513 133.157 31.5598C134.238 31.4513 135.211 32.2121 135.32 33.2989V33.4074C134.671 33.0813 133.913 32.8643 133.157 32.9728C131.318 32.9728 129.263 34.0596 129.263 36.0157C129.372 37.7541 130.777 39.0579 132.616 38.9494H132.724C133.806 39.0579 134.671 38.5148 135.32 37.6449H135.428V38.7318H137.374V33.5159C137.158 31.1259 135.319 29.7129 133.048 29.7129ZM132.724 37.1018C131.967 37.211 131.318 36.7757 131.102 36.0157C131.102 34.9288 132.183 34.6027 133.265 34.6027C133.913 34.6027 134.563 34.8203 135.103 35.0373C134.995 36.2326 133.913 37.1018 132.724 37.1018ZM144.187 30.039L141.808 35.798L139.429 30.039H137.266L140.835 38.1887L138.78 42.7524H140.943L146.566 30.039H144.187ZM126.019 38.6233H127.966V25.1493H126.019V38.6233Z" fill="white"/>
</g>
<defs>
<linearGradient id="paint0_linear_36_27" x1="33.595" y1="39.9591" x2="12.1575" y2="34.2408" gradientUnits="userSpaceOnUse">
<stop stop-color="#4998D3"/>
<stop offset="0.01" stop-color="#4A99D3"/>
<stop offset="0.26" stop-color="#42BAEB"/>
<stop offset="0.51" stop-color="#41C7F2"/>
<stop offset="0.76" stop-color="#56C9E9"/>
<stop offset="1" stop-color="#5BCAE8"/>
</linearGradient>
<linearGradient id="paint1_linear_36_27" x1="46.6623" y1="27.8504" x2="20.4938" y2="27.8504" gradientUnits="userSpaceOnUse">
<stop stop-color="#FEE000"/>
<stop offset="0.41" stop-color="#FEBD11"/>
<stop offset="0.78" stop-color="#FAA51A"/>
<stop offset="1" stop-color="#F99B1C"/>
</linearGradient>
<linearGradient id="paint2_linear_36_27" x1="27.8756" y1="34.289" x2="10.6792" y2="5.39585" gradientUnits="userSpaceOnUse">
<stop stop-color="#EF4149"/>
<stop offset="1" stop-color="#C31E63"/>
</linearGradient>
<linearGradient id="paint3_linear_36_27" x1="9.04288" y1="40.214" x2="16.5388" y2="27.255" gradientUnits="userSpaceOnUse">
<stop stop-color="#32A072"/>
<stop offset="0.07" stop-color="#2CA772"/>
<stop offset="0.48" stop-color="#4BBA71"/>
<stop offset="0.8" stop-color="#5EBD6B"/>
<stop offset="1" stop-color="#66BE69"/>
</linearGradient>
<clipPath id="clip0_36_27">
<rect width="126.454" height="29.9497" fill="white" transform="translate(20.5526 13.0789)"/>
</clipPath>
</defs>
</svg>
