<svg width="169" height="57" viewBox="0 0 169 57" fill="none" xmlns="http://www.w3.org/2000/svg">
<rect x="0.842102" width="168.158" height="56.0526" rx="5" fill="black"/>
<g clip-path="url(#clip0_36_38)">
<path fill-rule="evenodd" clip-rule="evenodd" d="M44.3486 27.2222C44.3173 23.7906 47.1978 22.1208 47.3302 22.0429C45.6983 19.6969 43.1699 19.3767 42.2814 19.3508C40.1576 19.1305 38.0977 20.604 37.0156 20.604C35.9121 20.604 34.2469 19.3727 32.4505 19.4087C30.1404 19.4433 27.9787 20.7631 26.7934 22.8116C24.3468 26.9893 26.1718 33.1283 28.5152 36.5053C29.6879 38.1585 31.0576 40.0054 32.8512 39.9402C34.6056 39.869 35.2612 38.8374 37.3783 38.8374C39.4761 38.8374 40.0917 39.9402 41.9206 39.8989C43.8041 39.869 44.9888 38.2377 46.1203 36.5692C47.4753 34.6737 48.0197 32.8068 48.041 32.711C47.9971 32.6957 44.3845 31.336 44.3486 27.2222ZM40.8937 17.1298C41.8375 15.9651 42.483 14.3824 42.304 12.7751C40.9383 12.835 39.2298 13.7069 38.2468 14.845C37.3763 15.8487 36.5989 17.4926 36.7999 19.0386C38.334 19.1518 39.9094 18.2752 40.8937 17.1298ZM65.5396 33.7938L64.325 30.0934C64.1966 29.7154 63.9556 28.8249 63.6002 27.4239H63.557C63.3416 28.3168 63.1142 29.2067 62.8748 30.0934L61.6815 33.7938H65.5396ZM69.7393 39.7026H67.2874L65.9443 35.5403H61.2761L59.9963 39.7026H57.609L62.2345 25.5317H65.0911L69.7393 39.7026ZM79.2892 34.5512C79.2892 33.5562 79.0623 32.7363 78.6064 32.0914C78.1092 31.4178 77.4403 31.0817 76.6031 31.0817C76.0347 31.0817 75.5182 31.2688 75.0577 31.6388C74.5958 32.0115 74.2936 32.4974 74.1525 33.1003C74.0806 33.3819 74.0454 33.6115 74.0454 33.7925V35.4963C74.0454 36.2397 74.2763 36.8674 74.7382 37.3798C75.2001 37.8916 75.8004 38.1472 76.5392 38.1472C77.4064 38.1472 78.0806 37.8171 78.5638 37.1589C79.047 36.5 79.2892 35.6308 79.2892 34.5512ZM81.634 34.4681C81.634 36.2058 81.1581 37.5795 80.2057 38.5878C79.3525 39.4856 78.2936 39.9342 77.029 39.9342C75.6646 39.9342 74.6843 39.4504 74.0873 38.4833H74.044V43.8663H71.7419V32.8481C71.7419 31.7559 71.7133 30.6345 71.6567 29.4844H73.6813L73.8098 31.1037H73.853C74.6204 29.8837 75.7858 29.2748 77.3491 29.2748C78.5711 29.2748 79.5914 29.7506 80.4073 30.7037C81.226 31.6574 81.634 32.912 81.634 34.4681ZM91.2052 34.5512C91.2052 33.5562 90.9776 32.7363 90.5217 32.0914C90.0239 31.4178 89.3583 31.0817 88.5191 31.0817C87.95 31.0817 87.4349 31.2688 86.973 31.6388C86.5111 32.0115 86.2096 32.4974 86.0678 33.1003C85.998 33.3819 85.9614 33.6115 85.9614 33.7925V35.4963C85.9614 36.2397 86.1923 36.8674 86.6522 37.3798C87.1147 37.8903 87.7144 38.1472 88.4558 38.1472C89.3224 38.1472 89.9972 37.8171 90.4798 37.1589C90.9636 36.5 91.2052 35.6308 91.2052 34.5512ZM93.5506 34.4681C93.5506 36.2058 93.0741 37.5795 92.121 38.5878C91.2691 39.4856 90.2096 39.9342 88.9457 39.9342C87.5813 39.9342 86.6003 39.4504 86.0039 38.4833H85.9614V43.8663H83.6592V32.8481C83.6592 31.7559 83.6306 30.6345 83.574 29.4844H85.5986L85.7271 31.1037H85.7703C86.5371 29.8837 87.7018 29.2748 89.2665 29.2748C90.4871 29.2748 91.5074 29.7506 92.326 30.7037C93.1413 31.6574 93.5506 32.912 93.5506 34.4681ZM106.874 35.7286C106.874 36.9339 106.449 37.9149 105.597 38.6723C104.661 39.4996 103.358 39.9129 101.684 39.9129C100.138 39.9129 98.8976 39.6187 97.9599 39.0297L98.493 37.1376C99.5039 37.7406 100.613 38.0427 101.821 38.0427C102.687 38.0427 103.362 37.849 103.847 37.4637C104.33 37.0777 104.571 36.5605 104.571 35.915C104.571 35.3399 104.372 34.8554 103.974 34.4627C103.577 34.0701 102.916 33.704 101.991 33.3666C99.4753 32.4415 98.2188 31.0857 98.2188 29.3034C98.2188 28.1387 98.6594 27.183 99.5412 26.4395C100.42 25.6954 101.593 25.3241 103.059 25.3241C104.366 25.3241 105.453 25.5484 106.32 25.9963L105.744 27.8478C104.934 27.4132 104.019 27.1956 102.994 27.1956C102.185 27.1956 101.552 27.3926 101.099 27.7846C100.715 28.1354 100.523 28.562 100.523 29.0678C100.523 29.6282 100.743 30.0914 101.182 30.4555C101.566 30.7922 102.262 31.1563 103.272 31.549C104.509 32.0401 105.417 32.6138 106.001 33.2721C106.583 33.9283 106.873 34.7496 106.873 35.7286H106.874ZM114.484 31.1882H111.947V36.1492C111.947 37.4111 112.394 38.0414 113.29 38.0414C113.701 38.0414 114.042 38.0068 114.312 37.9362L114.376 39.66C113.922 39.8277 113.325 39.9116 112.586 39.9116C111.677 39.9116 110.967 39.638 110.454 39.0916C109.943 38.5445 109.686 37.6261 109.686 36.3362V31.1862H108.175V29.4824H109.686V27.6109L111.947 26.9387V29.4824H114.484V31.1882ZM123.544 34.5832C123.544 33.6408 123.339 32.8328 122.926 32.1579C122.443 31.3426 121.753 30.936 120.859 30.936C119.934 30.936 119.231 31.3433 118.749 32.1579C118.335 32.8335 118.131 33.6541 118.131 34.6258C118.131 35.5682 118.335 36.3762 118.749 37.049C119.246 37.865 119.942 38.2717 120.839 38.2717C121.717 38.2717 122.407 37.8564 122.905 37.0278C123.33 36.3409 123.544 35.5243 123.544 34.5832ZM125.932 34.51C125.932 36.0807 125.476 37.3698 124.567 38.3782C123.613 39.4164 122.348 39.9342 120.771 39.9342C119.251 39.9342 118.04 39.4364 117.138 38.442C116.235 37.4477 115.784 36.1925 115.784 34.679C115.784 33.095 116.248 31.7985 117.18 30.7896C118.109 29.7806 119.364 29.2754 120.941 29.2754C122.461 29.2754 123.685 29.7726 124.608 30.7683C125.491 31.7346 125.932 32.9812 125.932 34.5093V34.51ZM133.414 31.4811C133.174 31.4383 132.931 31.4171 132.688 31.4178C131.878 31.4178 131.253 31.7193 130.811 32.323C130.429 32.8554 130.236 33.529 130.236 34.3409V39.7026H127.936L127.957 32.7023C127.957 31.5243 127.928 30.4528 127.871 29.4851H129.876L129.96 31.4405H130.024C130.267 30.7683 130.65 30.2278 131.175 29.8219C131.687 29.4565 132.242 29.2748 132.839 29.2748C133.052 29.2748 133.243 29.2894 133.414 29.316V31.4811ZM141.513 33.521C141.529 32.8488 141.378 32.2671 141.067 31.7759C140.668 31.1443 140.056 30.8295 139.232 30.8295C138.48 30.8295 137.868 31.137 137.4 31.7546C137.017 32.2458 136.789 32.8341 136.719 33.5203H141.513V33.521ZM143.708 34.11C143.708 34.5166 143.682 34.8601 143.625 35.1396H136.719C136.745 36.1492 137.08 36.9213 137.72 37.4537C138.303 37.9296 139.055 38.1685 139.979 38.1685C141.002 38.1685 141.935 38.0074 142.773 37.6847L143.134 39.2607C142.154 39.6826 140.996 39.8929 139.661 39.8929C138.055 39.8929 136.793 39.4257 135.876 38.494C134.96 37.5622 134.501 36.311 134.501 34.7416C134.501 33.2008 134.927 31.9177 135.782 30.8947C136.676 29.8019 137.883 29.2555 139.404 29.2555C140.897 29.2555 142.027 29.8012 142.795 30.8941C143.403 31.7619 143.708 32.8355 143.708 34.11ZM63.5849 16.8436C63.5849 16.0317 63.3673 15.4087 62.9307 14.9741C62.4948 14.5408 61.8578 14.3239 61.0186 14.3239C60.6625 14.3239 60.3597 14.3472 60.1074 14.3958V19.6023C60.2472 19.6236 60.5014 19.633 60.8722 19.633C61.7374 19.633 62.4062 19.3954 62.8768 18.9208C63.348 18.4456 63.5849 17.7535 63.5849 16.8443V16.8436ZM64.7783 16.813C64.7783 18.0669 64.3969 19.01 63.6362 19.6436C62.9307 20.2286 61.929 20.5215 60.6312 20.5215C60.0783 20.5262 59.5256 20.4984 58.976 20.4383V13.5891C59.6208 13.4897 60.2724 13.4414 60.9247 13.4447C62.1613 13.4447 63.0931 13.7096 63.7214 14.24C64.4255 14.839 64.7783 15.6969 64.7783 16.8124V16.813ZM69.9303 17.9445C69.9303 17.4812 69.8291 17.0839 69.6268 16.7531C69.3899 16.3525 69.0518 16.1521 68.6125 16.1521C68.1579 16.1521 67.8118 16.3518 67.5742 16.7525C67.3719 17.0839 67.2714 17.4872 67.2714 17.9644C67.2714 18.4277 67.3726 18.825 67.5749 19.1558C67.8198 19.5564 68.1606 19.7568 68.6012 19.7568C69.0338 19.7568 69.3725 19.5531 69.6161 19.1451C69.8258 18.8077 69.9303 18.4077 69.9303 17.9445ZM71.1043 17.9079C71.1043 18.6799 70.8807 19.3122 70.4334 19.8087C69.9649 20.3191 69.3439 20.5734 68.5692 20.5734C67.8218 20.5734 67.2268 20.3298 66.7829 19.8399C66.3403 19.3508 66.1193 18.7345 66.1193 17.9911C66.1193 17.2137 66.347 16.5761 66.8049 16.0809C67.2628 15.5858 67.8777 15.3375 68.6531 15.3375C69.4005 15.3375 70.0008 15.5811 70.4554 16.0696C70.8873 16.5448 71.1043 17.1585 71.1043 17.9079ZM79.5861 15.4393L77.9934 20.4596H76.9571L76.2969 18.2799C76.1327 17.7467 75.9963 17.2053 75.8883 16.658H75.8676C75.7699 17.2077 75.6332 17.7497 75.4583 18.2799L74.7575 20.4596H73.7099L72.2124 15.4393H73.3752L73.9509 17.826C74.09 18.3904 74.2044 18.9281 74.2963 19.4366H74.3162C74.4008 19.0173 74.5405 18.4829 74.7369 17.8366L75.459 15.4407H76.3808L77.0729 17.7854C77.2407 18.3578 77.3764 18.9082 77.4809 19.438H77.5122C77.5977 18.8813 77.7132 18.3296 77.8583 17.7854L78.4759 15.4407H79.5867V15.4393H79.5861ZM85.4515 20.4596H84.3201V17.5844C84.3201 16.6986 83.9793 16.2553 83.2952 16.2553C82.9591 16.2553 82.6875 16.3764 82.4772 16.6207C82.2703 16.8592 82.1585 17.1655 82.1631 17.4812V20.4582H81.0316V16.8743C81.0316 16.433 81.0177 15.9551 80.9904 15.4373H81.9847L82.0379 16.2227H82.0692C82.201 15.9784 82.3973 15.7768 82.6549 15.6164C82.9638 15.428 83.3194 15.3303 83.6812 15.3342C84.1564 15.3342 84.5511 15.4853 84.8659 15.7888C85.2565 16.1608 85.4515 16.7152 85.4515 17.4526V20.4596ZM87.4415 20.4596H88.5723V13.1365H87.4415V20.4596ZM94.0591 17.9445C94.0591 17.4812 93.9573 17.0839 93.7556 16.7531C93.5193 16.3525 93.1799 16.1521 92.742 16.1521C92.2861 16.1521 91.9406 16.3518 91.7037 16.7525C91.5014 17.0839 91.4009 17.4872 91.4009 17.9644C91.4009 18.4277 91.502 18.825 91.7044 19.1558C91.9493 19.5564 92.2901 19.7568 92.7307 19.7568C93.1633 19.7568 93.5007 19.5531 93.7449 19.1451C93.9553 18.8077 94.0591 18.4077 94.0591 17.9445ZM95.2338 17.9079C95.2338 18.6799 95.0102 19.3122 94.5629 19.8087C94.0944 20.3191 93.4727 20.5734 92.6987 20.5734C91.95 20.5734 91.3556 20.3298 90.913 19.8399C90.4698 19.3508 90.2488 18.7345 90.2488 17.9911C90.2488 17.2137 90.4764 16.5761 90.9343 16.0809C91.3922 15.5858 92.0072 15.3375 92.7819 15.3375C93.53 15.3375 94.129 15.5811 94.5849 16.0696C95.0168 16.5448 95.2338 17.1585 95.2338 17.9079ZM99.5352 18.7338V17.9611C98.2867 17.9398 97.663 18.2772 97.663 18.9727C97.663 19.2343 97.7342 19.4306 97.88 19.5611C98.0258 19.6922 98.2114 19.7574 98.4324 19.7574C98.6807 19.7574 98.9129 19.6796 99.1246 19.5251C99.2524 19.437 99.3566 19.319 99.4282 19.1812C99.4998 19.0435 99.5365 18.8903 99.5352 18.7351V18.7338ZM100.71 20.4602H99.6936L99.6098 19.8819H99.5778C99.2304 20.3431 98.7352 20.574 98.0916 20.574C97.6111 20.574 97.2224 20.4216 96.9296 20.1195C96.664 19.8446 96.5316 19.5025 96.5316 19.0972C96.5316 18.4836 96.7905 18.0163 97.3116 17.6929C97.8321 17.3688 98.5642 17.2104 99.5066 17.2177V17.1232C99.5066 16.4616 99.1552 16.1315 98.4497 16.1315C97.9479 16.1315 97.5046 16.2566 97.1233 16.5036L96.893 15.7708C97.3655 15.4819 97.9499 15.3375 98.6387 15.3375C99.9692 15.3375 100.636 16.0297 100.636 17.414V19.2623C100.636 19.7641 100.661 20.1634 100.709 20.4596L100.71 20.4602ZM105.966 18.3425V17.5052C105.966 17.3608 105.956 17.2436 105.935 17.1538C105.874 16.8905 105.731 16.6536 105.526 16.4776C105.316 16.2962 105.046 16.199 104.769 16.2047C104.347 16.2047 104.017 16.3691 103.773 16.7006C103.533 17.0313 103.411 17.4546 103.411 17.9711C103.411 18.4669 103.527 18.8696 103.759 19.1797C104.004 19.5098 104.334 19.6749 104.748 19.6749C105.119 19.6749 105.416 19.5371 105.642 19.2616C105.86 19.0067 105.966 18.7005 105.966 18.3425ZM107.139 20.4589H106.135L106.082 19.6536H106.051C105.73 20.2666 105.184 20.5734 104.416 20.5734C103.803 20.5734 103.292 20.3358 102.888 19.8612C102.482 19.386 102.281 18.7697 102.281 18.0124C102.281 17.2004 102.5 16.5415 102.94 16.039C103.366 15.5705 103.889 15.3362 104.511 15.3362C105.194 15.3362 105.673 15.5631 105.945 16.0177H105.966V13.1365H107.099V19.1078C107.099 19.5964 107.113 20.0469 107.139 20.4602V20.4589ZM115.644 17.9445C115.644 17.4812 115.542 17.0839 115.34 16.7531C115.102 16.3525 114.765 16.1521 114.324 16.1521C113.87 16.1521 113.526 16.3518 113.286 16.7525C113.084 17.0839 112.983 17.4872 112.983 17.9644C112.983 18.4277 113.084 18.825 113.287 19.1558C113.532 19.5564 113.872 19.7568 114.314 19.7568C114.745 19.7568 115.086 19.5531 115.329 19.1451C115.538 18.8077 115.644 18.4077 115.644 17.9445ZM116.816 17.9079C116.816 18.6799 116.593 19.3122 116.145 19.8087C115.677 20.3191 115.057 20.5734 114.281 20.5734C113.535 20.5734 112.94 20.3298 112.495 19.8399C112.053 19.3508 111.831 18.7345 111.831 17.9911C111.831 17.2137 112.059 16.5761 112.517 16.0809C112.975 15.5858 113.59 15.3375 114.366 15.3375C115.112 15.3375 115.714 15.5811 116.167 16.0696C116.599 16.5448 116.816 17.1585 116.816 17.9079ZM122.901 20.4596H121.769V17.5844C121.769 16.6986 121.428 16.2553 120.743 16.2553C120.407 16.2553 120.136 16.3764 119.926 16.6207C119.719 16.859 119.607 17.1655 119.612 17.4812V20.4582H118.48V16.8743C118.48 16.433 118.467 15.9551 118.44 15.4373H119.433L119.486 16.2227H119.518C119.651 15.9784 119.846 15.7768 120.103 15.6164C120.413 15.4282 120.768 15.3304 121.13 15.3342C121.604 15.3342 122 15.4853 122.314 15.7888C122.706 16.1608 122.9 16.7152 122.9 17.4526V20.4596H122.901ZM130.515 16.2753H129.269V18.7138C129.269 19.3341 129.49 19.6436 129.928 19.6436C130.132 19.6436 130.3 19.627 130.433 19.5917L130.462 20.4383C130.238 20.5215 129.945 20.5627 129.583 20.5627C129.136 20.5627 128.789 20.4283 128.537 20.1601C128.284 19.8919 128.159 19.4406 128.159 18.807V16.2753H127.415V15.4393H128.159V14.5196L129.268 14.1894V15.4387H130.514V16.2753H130.515H130.515ZM136.504 20.4596H135.372V17.6057C135.372 16.7059 135.031 16.2553 134.347 16.2553C133.823 16.2553 133.465 16.5162 133.268 17.038C133.231 17.1684 133.213 17.3037 133.215 17.4393V20.4582H132.085V13.1365H133.216V16.1615H133.237C133.594 15.6111 134.104 15.3362 134.766 15.3362C135.235 15.3362 135.623 15.4873 135.931 15.7907C136.313 16.1688 136.506 16.7312 136.506 17.4746V20.4596H136.504ZM141.604 17.4233C141.613 17.0926 141.539 16.807 141.385 16.5661C141.189 16.2566 140.89 16.1009 140.484 16.1009C140.115 16.1009 139.814 16.252 139.584 16.5555C139.392 16.8072 139.276 17.1081 139.249 17.4233H141.605H141.604ZM142.684 17.7122C142.684 17.9119 142.669 18.0802 142.642 18.218H139.249C139.263 18.7138 139.426 19.0919 139.74 19.3541C140.027 19.5884 140.397 19.7055 140.851 19.7055C141.352 19.7055 141.81 19.627 142.223 19.4679L142.4 20.2433C141.917 20.4496 141.35 20.5534 140.692 20.5534C139.903 20.5534 139.283 20.3245 138.834 19.8666C138.383 19.4087 138.159 18.7937 138.159 18.023C138.159 17.2656 138.367 16.6353 138.787 16.1328C139.226 15.5964 139.819 15.3275 140.567 15.3275C141.299 15.3275 141.855 15.5964 142.231 16.1328C142.534 16.5588 142.683 17.0859 142.683 17.7122" fill="white"/>
</g>
<defs>
<clipPath id="clip0_36_38">
<rect width="119.133" height="31.9464" fill="white" transform="translate(25.1317 12.1448)"/>
</clipPath>
</defs>
</svg>
