<svg width="169" height="57" viewBox="0 0 169 57" fill="none" xmlns="http://www.w3.org/2000/svg">
<rect width="168.158" height="56.0526" rx="5" fill="black"/>
<g clip-path="url(#clip0_36_42)">
<path fill-rule="evenodd" clip-rule="evenodd" d="M21.4479 14.5012C21.1237 14.8273 21.0153 15.4782 21.0153 16.0213V39.8186C21.0153 40.3624 21.2316 40.9055 21.4479 41.3401L21.5564 41.4486L34.9658 28.0837V27.7576L21.4485 14.5005L21.4479 14.5012Z" fill="url(#paint0_linear_36_42)"/>
<path fill-rule="evenodd" clip-rule="evenodd" d="M39.3994 32.4297L34.9655 27.9745V27.6484L39.3994 23.1938L39.5072 23.303L44.8063 26.3452C46.3204 27.2144 46.3204 28.6274 44.8063 29.4966L39.3994 32.4303V32.4297Z" fill="url(#paint1_linear_36_42)"/>
<path fill-rule="evenodd" clip-rule="evenodd" d="M39.5074 32.4296L34.8578 27.866L21.4484 41.3387C22.0973 41.8824 23.0703 41.8824 23.7192 41.4478L39.5074 32.4296Z" fill="url(#paint2_linear_36_42)"/>
<path fill-rule="evenodd" clip-rule="evenodd" d="M39.5072 23.3024L23.6119 14.3921C22.9623 13.9575 21.988 13.9575 21.3397 14.5012L34.857 27.8668L39.5072 23.3031V23.3024Z" fill="url(#paint3_linear_36_42)"/>
<path fill-rule="evenodd" clip-rule="evenodd" d="M61.5682 17.3257C61.5682 18.0864 61.2434 18.9556 60.8108 19.4987C60.4984 19.8106 60.1274 20.0576 59.7192 20.2255C59.311 20.3934 58.8735 20.4789 58.4321 20.4771C57.5669 20.4771 56.5932 20.1509 56.0528 19.4987C55.296 18.8465 54.9713 17.9779 54.9713 17.108C54.9713 16.1304 55.296 15.2612 55.945 14.7181C56.5932 14.0658 57.4584 13.6312 58.3236 13.7397C58.7562 13.7397 59.1888 13.8482 59.6214 14.0658C59.9456 14.2835 60.3782 14.3919 60.703 14.8265L60.1619 15.1527C59.6741 14.6656 59.0129 14.392 58.3236 14.3919C57.5669 14.3919 56.918 14.7181 56.3769 15.2612C55.8915 15.7533 55.6197 16.4168 55.6202 17.108C55.6202 17.7603 55.945 18.521 56.3769 18.9556C56.8649 19.4428 57.5263 19.7164 58.2158 19.7163C58.9725 19.7163 59.5136 19.3902 60.0541 18.9556C60.3782 18.521 60.5945 17.9773 60.703 17.5427H58.3236V16.7826H61.4597C61.5682 16.9996 61.5682 17.2172 61.5682 17.3257ZM66.5418 14.6096H63.6227V16.7826H66.2184V17.5427H63.6227V19.6079H66.5418V20.3679H62.7568V13.8482H66.5418V14.6096ZM70.0027 20.3679H69.1375V14.6096H67.2992V13.8482H71.7331V14.6096H69.8949V20.3686L70.0027 20.3679ZM75.0855 20.3679V13.8482H75.9507V20.2594C75.8422 20.3679 75.0855 20.3679 75.0855 20.3679ZM78.762 20.3679V14.6096H76.9244V13.8482H81.3583V14.6096H79.52C79.6278 14.6096 79.6278 20.3686 79.6278 20.3686H78.7626L78.762 20.3679ZM89.9006 19.4987C88.6028 20.8032 86.5482 20.8032 85.0341 19.4987C84.4062 18.8619 84.0564 18.0023 84.0611 17.108C84.0611 16.2388 84.3852 15.2612 85.0341 14.7181C86.4404 13.3051 88.4949 13.3051 89.9006 14.6089C90.5284 15.2457 90.8783 16.1053 90.8736 16.9996C90.8736 17.9779 90.5495 18.8471 89.9006 19.4987ZM85.683 18.9556C86.656 19.934 88.2786 19.934 89.1439 18.9556C89.6294 18.4633 89.9013 17.7995 89.9006 17.108C89.9006 16.4558 89.5758 15.8042 89.1439 15.2612C88.1702 14.2828 86.5482 14.2828 85.683 15.2612C85.1977 15.7533 84.9258 16.4168 84.9263 17.108C84.9263 17.7603 85.2504 18.4125 85.683 18.9556ZM92.0636 20.3679V13.8482H93.1445L96.2805 18.8465V13.8482H97.1458V20.2594H96.2805L92.9282 14.935V20.1503L92.063 20.3679H92.0636Z" fill="white" stroke="white" stroke-width="0.560673"/>
<path fill-rule="evenodd" clip-rule="evenodd" d="M83.9527 29.7129C81.3571 29.7129 79.411 31.7774 79.5195 34.385C79.6273 36.9933 81.574 38.9494 84.169 38.8402C86.6562 38.8402 88.6029 36.7757 88.6029 34.2765C88.6029 31.7774 86.6562 29.7129 83.9527 29.7129ZM83.9527 37.1018C82.4393 37.2109 81.1414 36.0156 81.033 34.4942C80.9251 32.9727 82.1145 31.6689 83.6286 31.5604C85.1427 31.4513 86.4405 32.6466 86.5484 34.168V34.3857C86.6562 35.798 85.4668 37.1018 83.9527 37.1018ZM73.8963 29.7129C71.3006 29.7129 69.3539 31.7774 69.4624 34.385C69.4624 36.9933 71.5169 38.9494 74.1126 38.8402C76.5997 38.8402 78.5458 36.7757 78.5458 34.2765C78.5458 31.7774 76.4912 29.7129 73.8963 29.7129ZM73.8963 37.1018C72.3821 37.2109 71.0843 36.0156 70.9765 34.4942C70.868 32.9727 72.0574 31.6689 73.5721 31.5604C75.0856 31.4513 76.3834 32.6466 76.4912 34.168V34.3857C76.4912 35.798 75.4097 37.1018 73.8956 37.1018H73.8963ZM61.8924 31.1252V33.0819H66.6511C66.5426 34.0596 66.2185 34.9288 65.5689 35.581C64.5959 36.5587 63.2981 37.1018 62.0009 36.9933C59.189 36.8848 57.0259 34.3857 57.1344 31.5604C57.2422 28.9521 59.4053 26.6706 62.0009 26.6706C63.2987 26.6706 64.5966 27.1052 65.4611 28.0829L66.8667 26.7791C65.5689 25.4746 63.7307 24.8231 62.0009 24.8231C58.1075 24.6061 54.8636 27.7568 54.6466 31.6689C54.431 35.581 57.567 38.8402 61.4598 39.0578H62.0009C63.8392 39.1663 65.6774 38.4056 66.9752 37.1018C68.273 35.4719 68.9213 33.408 68.5972 31.3428H61.8924V31.1258V31.1252ZM110.988 32.6466C110.448 30.9082 108.825 29.8213 106.987 29.7129C104.608 29.7129 102.661 31.5604 102.661 34.0589V34.2765C102.553 36.7757 104.5 38.8402 106.987 38.9487H107.203C108.717 38.9487 110.231 38.1886 111.096 36.9933L109.474 35.9065C109.041 36.6672 108.176 37.1018 107.203 37.1018C106.73 37.103 106.266 36.9713 105.865 36.7215C105.463 36.4718 105.14 36.1142 104.932 35.6895L111.096 33.0812L110.988 32.6466ZM104.716 34.168C104.608 32.7558 105.689 31.5604 107.095 31.5604H107.203C107.96 31.4513 108.609 31.8865 108.933 32.5388L104.716 34.168ZM99.633 38.6232H101.58V25.1492H99.633V38.6232ZM96.3892 30.7997C95.6318 30.1475 94.7672 29.7129 93.7935 29.7129C91.1979 29.8213 89.3603 31.995 89.4681 34.6026C89.5759 36.9933 91.4148 38.8402 93.7942 38.9487C94.7672 38.9487 95.6318 38.6232 96.2807 37.8625H96.3892V38.5147C96.6055 39.8186 95.7403 41.0139 94.4424 41.1224H94.0098C92.9283 41.1224 92.0638 40.4701 91.6311 39.4924L89.9007 40.2532C90.5496 41.8831 92.1716 42.9699 94.0098 42.9699C96.3892 42.9699 98.3359 41.557 98.3359 38.1886V30.039H96.3892V30.7997ZM94.0098 37.1025C92.4964 36.9933 91.4142 35.6895 91.4142 34.168C91.5227 32.7558 92.6042 31.5604 94.0098 31.5604C95.4161 31.6689 96.6055 32.7558 96.497 34.2765V34.3857C96.6055 35.9065 95.5239 37.1018 94.0098 37.1018V37.1025ZM120.396 25.1492H115.53V38.6232H117.476V33.5158H120.288C122.559 33.7334 124.505 31.8865 124.722 29.6044C124.938 27.3222 123.1 25.3668 120.828 25.1492H120.396H120.396ZM120.396 31.6689H117.584V26.9968H120.396C121.694 26.9968 122.776 28.0829 122.776 29.2783C122.776 30.5827 121.802 31.6689 120.396 31.6689ZM133.048 29.7129C131.535 29.6044 130.128 30.4736 129.48 31.7774L131.318 32.5381C131.643 31.8859 132.399 31.4513 133.157 31.5598C134.238 31.4513 135.211 32.212 135.32 33.2988V33.4073C134.671 33.0812 133.913 32.8642 133.157 32.9727C131.318 32.9727 129.263 34.0596 129.263 36.0156C129.372 37.754 130.777 39.0578 132.616 38.9493H132.724C133.806 39.0578 134.671 38.5147 135.32 37.6449H135.428V38.7317H137.374V33.5158C137.158 31.1258 135.319 29.7129 133.048 29.7129ZM132.724 37.1018C131.967 37.2109 131.318 36.7757 131.102 36.0156C131.102 34.9288 132.183 34.6026 133.265 34.6026C133.913 34.6026 134.563 34.8203 135.103 35.0373C134.995 36.2326 133.913 37.1018 132.724 37.1018ZM144.187 30.039L141.808 35.798L139.429 30.039H137.266L140.835 38.1886L138.78 42.7523H140.943L146.566 30.039H144.187ZM126.019 38.6232H127.966V25.1492H126.019V38.6232Z" fill="white"/>
</g>
<defs>
<linearGradient id="paint0_linear_36_42" x1="33.595" y1="39.9591" x2="12.1575" y2="34.2408" gradientUnits="userSpaceOnUse">
<stop stop-color="#4998D3"/>
<stop offset="0.01" stop-color="#4A99D3"/>
<stop offset="0.26" stop-color="#42BAEB"/>
<stop offset="0.51" stop-color="#41C7F2"/>
<stop offset="0.76" stop-color="#56C9E9"/>
<stop offset="1" stop-color="#5BCAE8"/>
</linearGradient>
<linearGradient id="paint1_linear_36_42" x1="46.6623" y1="27.8503" x2="20.4938" y2="27.8503" gradientUnits="userSpaceOnUse">
<stop stop-color="#FEE000"/>
<stop offset="0.41" stop-color="#FEBD11"/>
<stop offset="0.78" stop-color="#FAA51A"/>
<stop offset="1" stop-color="#F99B1C"/>
</linearGradient>
<linearGradient id="paint2_linear_36_42" x1="27.8756" y1="34.2889" x2="10.6792" y2="5.39579" gradientUnits="userSpaceOnUse">
<stop stop-color="#EF4149"/>
<stop offset="1" stop-color="#C31E63"/>
</linearGradient>
<linearGradient id="paint3_linear_36_42" x1="9.04288" y1="40.2141" x2="16.5388" y2="27.2551" gradientUnits="userSpaceOnUse">
<stop stop-color="#32A072"/>
<stop offset="0.07" stop-color="#2CA772"/>
<stop offset="0.48" stop-color="#4BBA71"/>
<stop offset="0.8" stop-color="#5EBD6B"/>
<stop offset="1" stop-color="#66BE69"/>
</linearGradient>
<clipPath id="clip0_36_42">
<rect width="126.454" height="29.9497" fill="white" transform="translate(20.5526 13.0789)"/>
</clipPath>
</defs>
</svg>
